<svg id="visual" viewBox="0 0 1920 1080" width="1920" height="1080" xmlns="http://www.w3.org/2000/svg" xmlns:xlink="http://www.w3.org/1999/xlink" version="1.1"><rect width="1920" height="1080" fill="#f6f5fa"></rect><g><g transform="translate(1626 440)"><path d="M169.7 -54.9C195.6 24.6 175.6 119.3 112.9 167.8C50.2 216.3 -55.1 218.6 -118.1 170.8C-181.2 123.1 -201.9 25.4 -175.2 -55.3C-148.4 -135.9 -74.2 -199.5 -1.2 -199.2C71.9 -198.8 143.8 -134.4 169.7 -54.9Z" fill="none" stroke="#09B397" stroke-width="20"></path></g><g transform="translate(700 762)"><path d="M159.3 -48.3C180.5 13.5 153.8 94.3 99.6 132.6C45.4 171 -36.5 166.9 -93.1 126.3C-149.6 85.6 -181 8.3 -161.2 -51.5C-141.5 -111.3 -70.8 -153.6 -0.9 -153.3C69 -153 138.1 -110.1 159.3 -48.3Z" fill="none" stroke="#09B397" stroke-width="20"></path></g></g></svg>