<svg id="visual" viewBox="0 0 900 600" width="900" height="600" xmlns="http://www.w3.org/2000/svg" xmlns:xlink="http://www.w3.org/1999/xlink" version="1.1"><path d="M0 202L16.7 202.7C33.3 203.3 66.7 204.7 100 206.2C133.3 207.7 166.7 209.3 200 211.8C233.3 214.3 266.7 217.7 300 218C333.3 218.3 366.7 215.7 400 212.5C433.3 209.3 466.7 205.7 500 206.2C533.3 206.7 566.7 211.3 600 218.5C633.3 225.7 666.7 235.3 700 229.3C733.3 223.3 766.7 201.7 800 197.2C833.3 192.7 866.7 205.3 883.3 211.7L900 218L900 0L883.3 0C866.7 0 833.3 0 800 0C766.7 0 733.3 0 700 0C666.7 0 633.3 0 600 0C566.7 0 533.3 0 500 0C466.7 0 433.3 0 400 0C366.7 0 333.3 0 300 0C266.7 0 233.3 0 200 0C166.7 0 133.3 0 100 0C66.7 0 33.3 0 16.7 0L0 0Z" fill="#09b397"></path><path d="M0 170L16.7 171.2C33.3 172.3 66.7 174.7 100 175.8C133.3 177 166.7 177 200 179C233.3 181 266.7 185 300 183.8C333.3 182.7 366.7 176.3 400 171.3C433.3 166.3 466.7 162.7 500 159.3C533.3 156 566.7 153 600 153C633.3 153 666.7 156 700 155.2C733.3 154.3 766.7 149.7 800 149.2C833.3 148.7 866.7 152.3 883.3 154.2L900 156L900 0L883.3 0C866.7 0 833.3 0 800 0C766.7 0 733.3 0 700 0C666.7 0 633.3 0 600 0C566.7 0 533.3 0 500 0C466.7 0 433.3 0 400 0C366.7 0 333.3 0 300 0C266.7 0 233.3 0 200 0C166.7 0 133.3 0 100 0C66.7 0 33.3 0 16.7 0L0 0Z" fill="#07a78c"></path><path d="M0 95L16.7 101.3C33.3 107.7 66.7 120.3 100 126.8C133.3 133.3 166.7 133.7 200 126.3C233.3 119 266.7 104 300 102.5C333.3 101 366.7 113 400 113.7C433.3 114.3 466.7 103.7 500 101.5C533.3 99.3 566.7 105.7 600 108.5C633.3 111.3 666.7 110.7 700 109.5C733.3 108.3 766.7 106.7 800 102.7C833.3 98.7 866.7 92.3 883.3 89.2L900 86L900 0L883.3 0C866.7 0 833.3 0 800 0C766.7 0 733.3 0 700 0C666.7 0 633.3 0 600 0C566.7 0 533.3 0 500 0C466.7 0 433.3 0 400 0C366.7 0 333.3 0 300 0C266.7 0 233.3 0 200 0C166.7 0 133.3 0 100 0C66.7 0 33.3 0 16.7 0L0 0Z" fill="#059b82"></path><path d="M0 70L16.7 71.7C33.3 73.3 66.7 76.7 100 71C133.3 65.3 166.7 50.7 200 45.8C233.3 41 266.7 46 300 52.5C333.3 59 366.7 67 400 66.2C433.3 65.3 466.7 55.7 500 50.2C533.3 44.7 566.7 43.3 600 41.7C633.3 40 666.7 38 700 38.7C733.3 39.3 766.7 42.7 800 46.5C833.3 50.3 866.7 54.7 883.3 56.8L900 59L900 0L883.3 0C866.7 0 833.3 0 800 0C766.7 0 733.3 0 700 0C666.7 0 633.3 0 600 0C566.7 0 533.3 0 500 0C466.7 0 433.3 0 400 0C366.7 0 333.3 0 300 0C266.7 0 233.3 0 200 0C166.7 0 133.3 0 100 0C66.7 0 33.3 0 16.7 0L0 0Z" fill="#048f78"></path></svg>