<svg id="visual" viewBox="0 0 900 600" width="900" height="600" xmlns="http://www.w3.org/2000/svg" xmlns:xlink="http://www.w3.org/1999/xlink" version="1.1"><path d="M0 405L16.7 406.3C33.3 407.7 66.7 410.3 100 413.3C133.3 416.3 166.7 419.7 200 424.8C233.3 430 266.7 437 300 437.7C333.3 438.3 366.7 432.7 400 426.3C433.3 420 466.7 413 500 414C533.3 415 566.7 424 600 438.2C633.3 452.3 666.7 471.7 700 459.8C733.3 448 766.7 405 800 395.8C833.3 386.7 866.7 411.3 883.3 423.7L900 436L900 0L883.3 0C866.7 0 833.3 0 800 0C766.7 0 733.3 0 700 0C666.7 0 633.3 0 600 0C566.7 0 533.3 0 500 0C466.7 0 433.3 0 400 0C366.7 0 333.3 0 300 0C266.7 0 233.3 0 200 0C166.7 0 133.3 0 100 0C66.7 0 33.3 0 16.7 0L0 0Z" fill="#09b397"></path><path d="M0 342L16.7 344C33.3 346 66.7 350 100 352.2C133.3 354.3 166.7 354.7 200 359C233.3 363.3 266.7 371.7 300 369.3C333.3 367 366.7 354 400 343.8C433.3 333.7 466.7 326.3 500 319.5C533.3 312.7 566.7 306.3 600 306.3C633.3 306.3 666.7 312.7 700 311.2C733.3 309.7 766.7 300.3 800 299.3C833.3 298.3 866.7 305.7 883.3 309.3L900 313L900 0L883.3 0C866.7 0 833.3 0 800 0C766.7 0 733.3 0 700 0C666.7 0 633.3 0 600 0C566.7 0 533.3 0 500 0C466.7 0 433.3 0 400 0C366.7 0 333.3 0 300 0C266.7 0 233.3 0 200 0C166.7 0 133.3 0 100 0C66.7 0 33.3 0 16.7 0L0 0Z" fill="#07a78c"></path><path d="M0 190L16.7 202.8C33.3 215.7 66.7 241.3 100 254.7C133.3 268 166.7 269 200 254.5C233.3 240 266.7 210 300 207C333.3 204 366.7 228 400 229.2C433.3 230.3 466.7 208.7 500 204C533.3 199.3 566.7 211.7 600 217.5C633.3 223.3 666.7 222.7 700 220.7C733.3 218.7 766.7 215.3 800 207.2C833.3 199 866.7 186 883.3 179.5L900 173L900 0L883.3 0C866.7 0 833.3 0 800 0C766.7 0 733.3 0 700 0C666.7 0 633.3 0 600 0C566.7 0 533.3 0 500 0C466.7 0 433.3 0 400 0C366.7 0 333.3 0 300 0C266.7 0 233.3 0 200 0C166.7 0 133.3 0 100 0C66.7 0 33.3 0 16.7 0L0 0Z" fill="#059b82"></path><path d="M0 142L16.7 145.2C33.3 148.3 66.7 154.7 100 143C133.3 131.3 166.7 101.7 200 92.2C233.3 82.7 266.7 93.3 300 106.7C333.3 120 366.7 136 400 134C433.3 132 466.7 112 500 100.7C533.3 89.3 566.7 86.7 600 83.5C633.3 80.3 666.7 76.7 700 78.2C733.3 79.7 766.7 86.3 800 94.2C833.3 102 866.7 111 883.3 115.5L900 120L900 0L883.3 0C866.7 0 833.3 0 800 0C766.7 0 733.3 0 700 0C666.7 0 633.3 0 600 0C566.7 0 533.3 0 500 0C466.7 0 433.3 0 400 0C366.7 0 333.3 0 300 0C266.7 0 233.3 0 200 0C166.7 0 133.3 0 100 0C66.7 0 33.3 0 16.7 0L0 0Z" fill="#048f78"></path></svg>